<?xml version="1.0" encoding="UTF-8"?>
<!DOCTYPE svg PUBLIC "-//W3C//DTD SVG 1.1//EN" "http://www.w3.org/Graphics/SVG/1.1/DTD/svg11.dtd">
<!-- Creator: Corel DESIGNER -->
<svg xmlns="http://www.w3.org/2000/svg" xml:space="preserve" width="799px" height="465px" style="shape-rendering:geometricPrecision; text-rendering:geometricPrecision; image-rendering:optimizeQuality; fill-rule:evenodd; clip-rule:evenodd"
viewBox="0 0 799 464.827"
 xmlns:xlink="http://www.w3.org/1999/xlink">
 <defs>
  <style type="text/css">
   <![CDATA[
    .str2 {stroke:#1F1A17;stroke-width:2.09375;stroke-linecap:round;stroke-linejoin:round}
    .str0 {stroke:#C2C1C1;stroke-width:2.79173;stroke-linecap:round;stroke-linejoin:round;stroke-opacity:0.388235}
    .str1 {stroke:white;stroke-width:2.79173;stroke-linecap:round;stroke-linejoin:round}
    .fil6 {fill:none}
    .fil3 {fill:none}
    .fil7 {fill:#798992}
    .fil5 {fill:#96AEBE}
    .fil2 {fill:#56B33E}
    .fil4 {fill:#AEC7D4}
    .fil13 {fill:#F5D964}
    .fil0 {fill:white}
    .fil12 {fill:white;fill-rule:nonzero}
    .fil8 {fill:white;fill-opacity:0.250980}
    .fil10 {fill:#DEDEDD;fill-rule:nonzero;fill-opacity:0.501961}
    .fil11 {fill:#DEDEDD;fill-opacity:0.709804}
    .fil9 {fill:url(#id2)}
    .fil1 {fill:url(#id3)}
    .fnt0 {font-weight:bold;font-size:18.1464;font-family:'DejaVu Sans'}
   ]]>
  </style>
   <mask id="id0">
  <linearGradient id="id1" gradientUnits="userSpaceOnUse" x1="469.446" y1="73.6417" x2="489.773" y2="148.907">
   <stop offset="0" style="stop-opacity:1; stop-color:white"/>
   <stop offset="0.490196" style="stop-opacity:0.501961; stop-color:white"/>
   <stop offset="1" style="stop-opacity:0; stop-color:white"/>
  </linearGradient>
    <rect style="fill:url(#id1)" x="393.909" y="67.1167" width="171.4" height="88.3148"/>
   </mask>
  <linearGradient id="id2" gradientUnits="userSpaceOnUse" x1="399.942" y1="62.1865" x2="431.526" y2="108.229">
   <stop offset="0" style="stop-color:#E77844"/>
   <stop offset="0.490196" style="stop-color:#C52720"/>
   <stop offset="1" style="stop-color:#74292A"/>
  </linearGradient>
  <linearGradient id="id3" gradientUnits="userSpaceOnUse" x1="406.003" y1="195.628" x2="392.1" y2="275.902">
   <stop offset="0" style="stop-color:#0093DD"/>
   <stop offset="0.419608" style="stop-color:#3AACE6"/>
   <stop offset="1" style="stop-color:#75C5F0"/>
  </linearGradient>
 </defs>
 <g id="Layer_x0020_1">
  <metadata id="CorelCorpID_0Corel-Layer"/>
  <rect class="fil0" x="-0.000197841" y="-0.000197841" width="799" height="464.827"/>
  <polygon class="fil1" points="21.26,428.711 713.568,428.711 776.844,42.8187 250.115,42.8187 "/>
  <path class="fil2" d="M21.26 428.711c230.769,0 461.539,0 692.308,0 11.5644,-70.5273 23.129,-141.055 34.6934,-211.582 -17.3097,-1.28874 -34.6196,-2.57787 -55.2437,-4.65856 -20.6243,-2.08069 -44.5631,-4.95334 -60.203,-7.0279 -15.6399,-2.07476 -22.9814,-3.35162 -28.0883,-2.39407 -5.10687,0.95755 -7.97951,4.14951 -13.0864,6.06442 -5.10687,1.9151 -12.4483,2.55373 -12.9271,1.59618 -0.478775,-0.95755 5.90515,-3.51128 9.89481,-5.90496 3.98966,-2.39387 5.58584,-4.62829 1.9153,-6.22407 -3.67074,-1.59598 -12.608,-2.55353 -22.343,-4.30897 -9.73515,-1.75544 -20.2682,-4.30917 -31.1204,-6.70285 -10.8522,-2.39387 -22.0238,-4.62829 -34.3123,-8.13917 -12.2885,-3.51108 -25.6942,-8.29883 -33.514,-10.3736 -7.82005,-2.07476 -10.0545,-1.43613 -12.4481,-1.75524 -2.39387,-0.319315 -4.9476,-1.59618 -6.38373,-0.798288 -1.43632,0.79809 -1.75564,3.67074 -2.87265,6.54339 -1.11721,2.87265 -3.03231,5.7453 -5.10687,7.6604 -2.07476,1.9151 -4.30917,2.87265 -5.7453,4.30897 -1.43632,1.43632 -2.07495,3.35142 -3.19196,4.30897 -1.11701,0.95755 -2.71319,0.95755 -3.35142,-0.319117 -0.638432,-1.27667 -0.319117,-3.8304 -0.638235,-6.54339 -0.319315,-2.71299 -1.27686,-5.58564 -2.55353,-9.41584 -1.27667,-3.8302 -2.87285,-8.61795 -6.38373,-12.2885 -3.51088,-3.67054 -8.93726,-6.22427 -15.1611,-8.45849 -6.22407,-2.23422 -13.2462,-4.14932 -18.5126,-5.90476 -5.26652,-1.75544 -8.7778,-3.35162 -11.8099,-5.7453 -3.03211,-2.39387 -5.58584,-5.58584 -7.82005,-8.93706 -2.23422,-3.35142 -4.14932,-6.8627 -7.02196,-8.61814 -2.87265,-1.75544 -6.70285,-1.75544 -9.41584,0 -2.71299,1.75544 -4.30917,5.26672 -5.7453,7.97971 -1.43632,2.71299 -2.71319,4.62809 -6.22407,6.06442 -3.51108,1.43632 -9.25638,2.39387 -14.3632,3.98966 -5.10687,1.59598 -9.57569,3.8304 -14.5229,4.94741 -4.94721,1.11721 -10.3736,1.11721 -14.3632,2.55353 -3.98966,1.43632 -6.54339,4.30897 -8.93706,6.22407 -2.39387,1.9151 -4.62829,2.87265 -4.46883,1.59598 0.159658,-1.27667 2.71339,-4.78795 7.50094,-7.6604 4.78775,-2.87265 11.8099,-5.10706 15.0017,-7.82005 3.19196,-2.71299 2.55333,-5.90496 0.478775,-9.09672 -2.07456,-3.19177 -5.58584,-6.38373 -11.8097,-7.97951 -6.22407,-1.59598 -15.1613,-1.59598 -30.6418,-1.65553 -15.4806,-0.0595501 -37.5051,-0.17865 -59.5291,-0.29775 -60.6442,102.258 -121.289,204.516 -181.933,306.773z"/>
  <path class="fil3 str0" d="M569.237 179.967c-1.74911,-7.33297 -3.49882,-14.6648 -6.35663,-22.6999 -2.85821,-8.0355 -6.82531,-16.7729 -12.3791,-25.5116 -5.55359,-8.73744 -12.6943,-17.4763 -20.3901,-24.7808 -7.69581,-7.30488 -15.9474,-13.1752 -23.4327,-17.5867 -7.48551,-4.41126 -14.205,-7.36364 -23.4865,-9.40377 -9.2815,-2.03974 -21.1247,-3.16842 -35.8468,-1.8781 -14.7221,1.28854 -32.3232,4.99786 -31.1346,5.26237 1.18902,0.265898 21.1678,-2.91202 34.0132,-4.29532 12.8458,-1.3835 18.5581,-0.975157 24.667,0.52685 6.10933,1.50141 12.6153,4.09629 18.4768,7.07182 5.86163,2.97513 11.0793,6.3319 17.0295,11.1109 5.95046,4.77845 12.6341,10.9784 19.6252,20.7697 6.9911,9.78936 14.2906,23.1703 19.7441,35.2398 5.45309,12.0695 9.06091,22.8298 11.0565,30.9526 1.99602,8.12374 2.38022,13.6097 2.76443,19.0956"/>
  <path class="fil3 str0" d="M609.588 177.393c-1.32098,-3.96315 -2.64216,-7.9263 -7.8436,-17.0911 -5.20163,-9.16478 -14.2841,-23.5312 -25.4018,-36.666 -11.1179,-13.135 -24.2713,-25.0387 -37.6885,-33.6031 -13.4174,-8.56433 -27.0985,-13.7899 -38.0395,-16.2995 -10.9412,-2.50961 -19.1427,-2.30326 -30.1618,-0.303884 -11.0191,1.99938 -24.8563,5.79258 -36.8898,9.06309 -12.0337,3.27051 -22.2638,6.01891 -20.6002,4.8746 1.66384,-1.14431 15.2213,-6.18154 28.5898,-9.74247 13.3687,-3.56114 26.5487,-5.64677 37.9273,-6.60689 11.3786,-0.960122 20.9565,-0.794727 33.6715,3.58112 12.715,4.37584 28.5676,12.9629 41.3652,22.045 12.7977,9.08208 22.5406,18.66 31.5402,30.4667 8.99958,11.8067 17.2563,25.8432 25.5128,39.8792"/>
  <path class="fil3 str0" d="M565.987 182.747c-1.74911,-7.33297 -3.49882,-14.6648 -6.35663,-22.6999 -2.85821,-8.0355 -6.82531,-16.7729 -12.3791,-25.5116 -5.55359,-8.73744 -12.6943,-17.4763 -20.3901,-24.7808 -7.69581,-7.30488 -15.9474,-13.1752 -23.4327,-17.5867 -7.48551,-4.41126 -14.205,-7.36364 -23.4865,-9.40377 -9.2815,-2.03974 -21.1247,-3.16842 -35.8468,-1.8781 -14.7221,1.28854 -32.3232,4.99786 -31.1346,5.26237 1.18902,0.265898 21.1678,-2.91202 34.0132,-4.29532 12.8458,-1.3835 18.5581,-0.975157 24.667,0.52685 6.10933,1.50141 12.6153,4.09629 18.4768,7.07182 5.86163,2.97513 11.0793,6.3319 17.0295,11.1109 5.95046,4.77845 12.6341,10.9784 19.6252,20.7697 6.9911,9.78936 14.2906,23.1703 19.7441,35.2398 5.45309,12.0695 9.06091,22.8298 11.0565,30.9526 1.99602,8.12374 2.38022,13.6097 2.76443,19.0956"/>
  <path class="fil3 str0" d="M582.714 196.188c-1.72715,-8.80431 -3.4547,-17.61 -6.27709,-27.2593 -2.822,-9.64969 -6.73925,-20.144 -12.2232,-30.637 -5.48355,-10.4939 -12.5344,-20.9881 -20.1339,-29.7602 -7.59907,-8.77266 -15.7467,-15.8223 -23.1385,-21.1185 -7.39133,-5.29976 -14.0263,-8.84527 -23.1909,-11.2949 -9.16517,-2.45065 -20.8595,-3.80527 -35.3971,-2.25697 -14.5368,1.54949 -31.9167,6.00308 -30.7429,6.32141 1.17399,0.319315 20.9017,-3.49703 33.5861,-5.1591 12.6842,-1.66226 18.3246,-1.16924 24.357,0.633684 6.03236,1.80292 12.4563,4.91931 18.2443,8.49192 5.78823,3.5732 10.94,7.6052 16.8157,13.3432 5.87567,5.73897 12.4752,13.1849 19.3785,24.9422 6.90346,11.7577 14.111,27.8257 19.4964,42.3211 5.38424,14.4956 8.94656,27.4182 10.9175,37.1729 1.97129,9.75533 2.35015,16.3432 2.72941,22.9323"/>
  <path class="fil3 str0" d="M558.254 179.024c-1.65969,-7.28054 -3.31977,-14.5613 -6.03157,-22.54 -2.7118,-7.97853 -6.47612,-16.6533 -11.746,-25.3307 -5.26929,-8.67611 -12.0447,-17.3536 -19.3471,-24.6063 -7.30191,-7.25324 -15.1317,-13.0818 -22.2337,-17.462 -7.10268,-4.38039 -13.4785,-7.312 -22.2856,-9.3373 -8.80669,-2.02549 -20.0437,-3.14725 -34.013,-1.86564 -13.9691,1.27963 -30.6699,4.96363 -29.542,5.22557 1.12829,0.264118 20.085,-2.89085 32.2734,-4.26545 12.1886,-1.37381 17.609,-0.967442 23.4056,0.52408 5.79654,1.49073 11.9698,4.06682 17.5315,7.02157 5.5621,2.95456 10.5129,6.28679 16.1583,11.0326 5.64638,4.74482 11.988,10.9006 18.6216,20.6227 6.6336,9.72071 13.5598,23.0073 18.7343,34.9911 5.17413,11.9846 8.59717,22.6688 10.4907,30.734 1.89393,8.06597 2.25835,13.5131 2.62337,18.9605"/>
  <path class="fil3 str0" d="M579.631 198.949c-1.72715,-8.8057 -3.4547,-17.6114 -6.2767,-27.2601 -2.8224,-9.65068 -6.73925,-20.144 -12.2234,-30.638 -5.48435,-10.4935 -12.5348,-20.9872 -20.1341,-29.7602 -7.59887,-8.77068 -15.7469,-15.8221 -23.1383,-21.1201 -7.39133,-5.29679 -14.0263,-8.8423 -23.1911,-11.2926 -9.16517,-2.45006 -20.8593,-3.80507 -35.3971,-2.25677 -14.5369,1.54909 -31.9165,6.00269 -30.7425,6.32082 1.173,0.319513 20.9017,-3.49684 33.5853,-5.15949 12.6844,-1.66147 18.3252,-1.16904 24.3572,0.633882 6.03256,1.80352 12.4569,4.91951 18.2445,8.49252 5.78764,3.57301 10.9402,7.60461 16.8159,13.3438 5.87567,5.73798 12.4752,13.1837 19.3785,24.9424 6.90346,11.7561 14.111,27.8249 19.496,42.3203 5.38463,14.496 8.94715,27.4176 10.9176,37.1723 1.97069,9.75533 2.35015,16.3448 2.72941,22.9323"/>
  <path class="fil3 str0" d="M555.17 181.783c-1.65969,-7.28015 -3.32016,-14.5601 -6.03138,-22.5388 -2.7118,-7.97932 -6.47652,-16.6544 -11.7462,-25.3311 -5.26969,-8.67492 -12.0447,-17.353 -19.3474,-24.6053 -7.30171,-7.25364 -15.1313,-13.0828 -22.2341,-17.4628 -7.10209,-4.3802 -13.4779,-7.3116 -22.2848,-9.33809 -8.80649,-2.02352 -20.044,-3.14488 -34.013,-1.86425 -13.9689,1.27944 -30.6703,4.96264 -29.5422,5.22537 1.12829,0.263722 20.085,-2.89184 32.2734,-4.26545 12.1886,-1.37361 17.6088,-0.96764 23.4056,0.523487 5.79654,1.49014 11.9698,4.06761 17.5315,7.02177 5.5619,2.95436 10.5127,6.28718 16.1585,11.033 5.64618,4.74403 11.9878,10.8998 18.6216,20.6223 6.63321,9.71992 13.5596,23.0067 18.7337,34.9913 5.17413,11.9838 8.59777,22.6684 10.4913,30.7334 1.89413,8.06656 2.25835,13.5141 2.62297,18.9613"/>
  <path class="fil3 str0" d="M546.088 186.096c-1.38291,-7.88495 -2.76502,-15.7719 -5.02437,-24.4138 -2.25835,-8.64149 -5.39532,-18.0387 -9.78501,-27.437 -4.38989,-9.39724 -10.0333,-18.7957 -16.1169,-26.6515 -6.08281,-7.85586 -12.6058,-14.1703 -18.5227,-18.9142 -5.91623,-4.74501 -11.2279,-7.91917 -18.5644,-10.114 -7.33653,-2.19386 -16.6974,-3.40801 -28.3348,-2.02114 -11.6378,1.38845 -25.5494,5.37672 -24.6098,5.66161 0.939348,0.286474 16.7314,-3.13222 26.8858,-4.62018 10.1532,-1.48935 14.6691,-1.04856 19.4972,0.56622 4.82949,1.61577 9.97138,4.40532 14.6044,7.60599 4.63383,3.20008 8.75782,6.81028 13.4613,11.9498 4.70347,5.13892 9.98661,11.8071 15.5119,22.3364 5.52668,10.5305 11.2963,24.92 15.6065,37.9021 4.31075,12.9811 7.16303,24.5532 8.74001,33.2901 1.57758,8.73665 1.88186,14.6355 2.18476,20.5367"/>
  <path class="fil3 str0" d="M526.508 170.724c-1.3283,-6.52103 -2.65799,-13.0397 -4.8285,-20.1859 -2.17031,-7.14562 -5.18402,-14.9144 -9.40219,-22.6862 -4.21816,-7.76941 -9.64177,-15.5396 -15.4874,-22.0343 -5.8456,-6.4961 -12.1128,-11.7167 -17.7989,-15.6393 -5.68476,-3.9218 -10.7887,-6.54734 -17.8385,-8.36194 -7.04966,-1.81301 -16.0449,-2.81785 -27.2273,-1.66997 -11.1826,1.1451 -24.5515,4.4441 -23.6489,4.67992 0.903737,0.234837 16.0783,-2.58934 25.8348,-3.82011 9.75711,-1.23037 14.0962,-0.866543 18.7363,0.468883 4.63976,1.33483 9.58163,3.64166 14.0336,6.28817 4.4528,2.64533 8.41556,5.63095 12.9344,9.87938 4.52086,4.25002 9.59667,9.76265 14.9079,18.4696 5.30866,8.70539 10.8537,20.6045 14.9959,31.3372 4.1414,10.7319 6.88209,20.3004 8.39775,27.5232 1.51665,7.22356 1.80866,12.1025 2.10008,16.9795"/>
  <path class="fil3 str0" d="M524.04 173.196c-1.3289,-6.52024 -2.65799,-13.0411 -4.82969,-20.1853 -2.17012,-7.14542 -5.18323,-14.915 -9.40159,-22.686 -4.21896,-7.76921 -9.64256,-15.5406 -15.4878,-22.0351 -5.8456,-6.49591 -12.1116,-11.7155 -17.7986,-15.6397 -5.68575,-3.9216 -10.7885,-6.54675 -17.8387,-8.36174 -7.04986,-1.814 -16.0457,-2.81745 -27.2271,-1.67017 -11.1832,1.14708 -24.5515,4.4443 -23.6491,4.67894 0.902946,0.238003 16.0777,-2.58835 25.8348,-3.81853 9.75692,-1.23037 14.096,-0.867334 18.7363,0.468685 4.64016,1.33463 9.58143,3.64245 14.0338,6.28758 4.45261,2.64612 8.41536,5.62936 12.9346,9.88037 4.52007,4.24962 9.59647,9.76285 14.9069,18.4692 5.30965,8.705 10.8547,20.6031 14.9963,31.336 4.142,10.7343 6.88189,20.302 8.39795,27.5242 1.51586,7.22416 1.80767,12.1023 2.10008,16.9809"/>
  <path class="fil3 str0" d="M518.165 169.885c-1.26005,-6.47493 -2.52089,-12.9481 -4.5816,-20.0425 -2.05873,-7.09635 -4.91773,-14.8094 -8.92104,-22.5244 -4.00212,-7.71599 -9.14816,-15.4332 -14.695,-21.8818 -5.54528,-6.44961 -11.4936,-11.6338 -16.8881,-15.5275 -5.39433,-3.89489 -10.2365,-6.50342 -16.9265,-8.30259 -6.6892,-1.80193 -15.2242,-2.79984 -25.8352,-1.65949 -10.6094,1.13778 -23.295,4.41363 -22.4381,4.64689 0.857442,0.234441 15.2557,-2.57134 24.5133,-3.7932 9.25717,-1.22206 13.3754,-0.861003 17.7784,0.465915 4.40255,1.32573 9.09059,3.61673 13.3155,6.24366 4.2245,2.62832 7.98367,5.59098 12.2731,9.81093 4.28879,4.21896 9.10503,9.69282 14.1442,18.3385 5.03762,8.64307 10.2992,20.4581 14.2295,31.1148 3.92971,10.6581 6.52895,20.158 7.96824,27.3299 1.4387,7.17272 1.71568,12.0163 1.99206,16.8598"/>
  <path class="fil3 str0" d="M490.587 162.677c-1.00286,-5.64658 -2.0063,-11.2933 -3.64621,-17.4804 -1.63872,-6.18787 -3.91369,-12.9156 -7.09912,-19.6458 -3.18484,-6.72797 -7.28054,-13.4573 -11.693,-19.0817 -4.41324,-5.62521 -9.14559,-10.1457 -13.4385,-13.5438 -4.29473,-3.39594 -8.14531,-5.66972 -13.4688,-7.24137 -5.3239,-1.57026 -12.1164,-2.43938 -20.5582,-1.44622 -8.44385,0.993755 -18.5373,3.8488 -17.8565,4.05237 0.681957,0.205557 12.1403,-2.24233 19.5061,-3.30711 7.3672,-1.06557 10.6428,-0.751202 14.1466,0.405969 3.50356,1.15559 7.23563,3.15437 10.5962,5.44498 3.3627,2.29119 6.35326,4.8748 9.768,8.55642 3.41157,3.67964 7.24493,8.45394 11.2542,15.9942 4.00984,7.53774 8.19615,17.8415 11.3222,27.136 3.12747,9.29575 5.19688,17.5811 6.34021,23.8355 1.14649,6.25612 1.36609,10.4802 1.58609,14.7051"/>
  <path class="fil3 str0" d="M402.157 92.948c10.4145,-0.796309 20.8295,-1.59282 29.1974,-0.568001 8.36788,1.02501 14.6891,3.87115 19.3874,8.27647 4.69852,4.40532 7.77455,10.3698 10.8702,18.492 3.09581,8.12216 6.212,18.4024 8.23433,27.9056 2.02253,9.50328 2.95159,18.2304 3.88065,26.9572"/>
  <path class="fil3 str0" d="M401.112 90.0674c9.74762,-0.796309 19.4958,-1.59282 27.3278,-0.568001 7.83153,1.02501 13.7484,3.87115 18.1458,8.27647 4.39761,4.40532 7.27678,10.3698 10.1744,18.492 2.89738,8.12216 5.81415,18.4024 7.70689,27.9056 1.89294,9.50328 2.76265,18.2304 3.63216,26.9572"/>
  <path class="fil3 str0" d="M404.669 90.4354c10.4145,-0.796309 20.8295,-1.59282 29.1974,-0.568001 8.36788,1.02501 14.6891,3.87115 19.3874,8.27647 4.69852,4.40532 7.77455,10.3698 10.8702,18.492 3.09581,8.12216 6.212,18.4024 8.23433,27.9056 2.02253,9.50328 2.95159,18.2304 3.88065,26.9572"/>
  <path class="fil3 str0" d="M403.625 87.5549c9.74762,-0.796309 19.4958,-1.59282 27.3278,-0.568001 7.83153,1.02501 13.7484,3.87115 18.1458,8.27647 4.39761,4.40532 7.27678,10.3698 10.1744,18.492 2.89738,8.12216 5.81415,18.4024 7.70689,27.9056 1.89294,9.50328 2.76265,18.2304 3.63216,26.9572"/>
  <path class="fil3 str0" d="M403.625 92.9597c10.0713,-0.881183 20.1432,-1.76237 28.2351,-0.62854 8.09149,1.13422 14.2048,4.28325 18.7482,9.15766 4.54361,4.8744 7.51835,11.474 10.5121,20.4609 2.99353,8.98672 6.00724,20.3616 7.9629,30.8766 1.95566,10.515 2.85425,20.1715 3.75264,29.8273"/>
  <path class="fil3 str0" d="M402.017 88.1242c9.02886,-0.821237 18.0575,-1.64267 25.3118,-0.585807 7.25443,1.05706 12.7338,3.99223 16.807,8.53505 4.07315,4.54282 6.73965,10.6937 9.42296,19.0697 2.68371,8.37579 5.38543,18.9771 7.13869,28.7773 1.75346,9.80005 2.55868,18.7998 3.36369,27.7992"/>
  <path class="fil3 str0" d="M401.112 85.1537c8.44998,-0.821237 16.9009,-1.64247 23.6905,-0.585807 6.78911,1.05706 11.9181,3.99203 15.7305,8.53505 3.81259,4.54302 6.30816,10.6939 8.82014,19.0697 2.51139,8.37579 5.04059,18.9773 6.68168,28.7773 1.64069,9.80005 2.39467,18.8 3.14844,27.7992"/>
  <path class="fil3 str0" d="M403.291 82.5627c8.44978,-0.821435 16.9004,-1.64267 23.6899,-0.585807 6.7895,1.05706 11.9187,3.99203 15.7311,8.53485 3.81239,4.54302 6.30776,10.6939 8.82014,19.0697 2.51139,8.37579 5.04039,18.9773 6.68089,28.7773 1.64089,9.80024 2.39486,18.7998 3.14864,27.7994"/>
  <path class="fil3 str0" d="M399.437 94.2017c8.35838,-0.641004 16.7166,-1.28181 23.4323,-0.457408 6.71571,0.824798 11.7881,3.1152 15.5588,6.65972 3.77065,3.54511 6.23891,8.34493 8.7232,14.8804 2.48429,6.53567 4.98559,14.8078 6.60848,22.4549 1.62328,7.64694 2.36875,14.6701 3.11401,21.6919"/>
  <path class="fil3 str0" d="M398.6 91.8836c7.82263,-0.641004 15.6458,-1.28181 21.9311,-0.45721 6.28521,0.824996 11.0332,3.11481 14.5623,6.66011 3.52968,3.54491 5.83987,8.34414 8.16548,14.88 2.32483,6.53567 4.66608,14.8078 6.18549,22.4549 1.51882,7.64734 2.21681,14.6697 2.91459,21.6919"/>
  <path class="fil3 str0" d="M401.454 92.1798c8.35798,-0.640806 16.7162,-1.28181 23.4317,-0.45721 6.71531,0.824996 11.7883,3.115 15.5588,6.66011 3.77065,3.54452 6.2395,8.34433 8.7232,14.8796 2.48508,6.53627 4.98598,14.808 6.60868,22.4553 1.62328,7.64714 2.36855,14.6699 3.11441,21.6917"/>
  <path class="fil3 str0" d="M400.616 89.8619c7.82243,-0.641004 15.6453,-1.28201 21.9309,-0.45721 6.28501,0.824798 11.0336,3.1154 14.5627,6.65972 3.52928,3.54511 5.83947,8.34433 8.16529,14.8802 2.32483,6.53547 4.66608,14.8078 6.1847,22.4551 1.51902,7.64675 2.217,14.6693 2.91479,21.6915"/>
  <path class="fil4" style="mask:url(#id0)" d="M396.079 82.6053c4.38653,-3.87293 15.7092,-7.92056 31.8318,-10.869 16.1226,-2.94842 37.0457,-4.79823 56.7817,-4.60138 19.7362,0.197049 38.2858,2.44056 53.0949,9.56857 14.8094,7.12801 25.8788,19.1407 27.3507,34.7703 1.47213,15.6298 -6.65319,34.877 -17.4965,39.9609 -10.8433,5.08411 -24.4051,-3.9946 -33.9465,-4.48129 -9.54167,-0.486886 -15.0638,7.61826 -25.9904,8.40962 -10.9266,0.791363 -27.2579,-5.73105 -37.5597,-16.5478 -10.302,-10.8167 -14.5743,-25.9282 -22.4615,-34.1339 -7.88732,-8.20584 -19.3896,-9.50645 -26.4153,-12.0058 -7.02592,-2.49932 -9.57569,-6.19756 -5.18937,-10.0703z"/>
  <polygon class="fil5" points="153.402,428.711 473.223,428.711 412.898,355.937 418.643,326.253 335.336,338.702 289.374,362.64 213.727,368.386 207.982,381.791 "/>
  <path class="fil6 str1" d="M145.741 238.159c51.0692,35.7485 102.139,71.4971 133.419,92.2439 31.28,20.747 42.7706,26.4923 54.8994,29.2053 12.129,2.71319 24.8965,2.39387 46.9199,-1.27667 22.0236,-3.67054 53.3039,-10.6927 79.9556,-18.1934 26.6517,-7.50074 48.6754,-15.4805 71.3373,-23.7791 22.6621,-8.29883 45.9626,-16.9168 63.8367,-24.8963 17.8743,-7.97951 30.3225,-15.321 37.9829,-22.1833 7.6604,-6.86231 10.533,-13.2462 11.1715,-18.6722 0.638432,-5.42598 -0.957747,-9.89481 -4.46863,-13.8845 -3.51088,-3.98966 -8.93726,-7.50094 -15.7996,-9.73515 -6.86231,-2.23422 -15.1613,-3.19177 -24.5772,-2.39387 -9.41584,0.797892 -19.9489,3.35162 -30.801,8.45849 -10.8522,5.10687 -22.0238,12.7673 -37.185,21.0659 -15.1611,8.29883 -34.3121,17.2361 -56.8145,24.5772 -22.5024,7.34128 -48.3563,13.0866 -69.9468,16.2516 -21.5906,3.16526 -38.9181,3.75067 -58.2285,2.15468 -19.3107,-1.59598 -40.6045,-5.37296 -65.6145,-11.4107 -25.0102,-6.0379 -53.7367,-14.3369 -77.037,-22.6356 -23.3003,-8.29863 -41.1748,-16.5977 -59.049,-24.8963z"/>
  <ellipse class="fil7" cx="376.85" cy="340.013" rx="21.9057" ry="7.49065"/>
  <path class="fil8" d="M145.741 238.159c51.0692,35.7485 102.139,71.4971 133.419,92.2439 31.28,20.747 42.7706,26.4923 54.8994,29.2053 12.129,2.71319 24.8965,2.39387 46.9199,-1.27667 22.0236,-3.67054 53.3039,-10.6927 79.9556,-18.1934 26.6517,-7.50074 48.6754,-15.4805 71.3373,-23.7791 22.6621,-8.29883 45.9626,-16.9168 63.8367,-24.8963 17.8743,-7.97951 30.3225,-15.321 37.9829,-22.1833 7.6604,-6.86231 10.533,-13.2462 11.1715,-18.6722 0.638432,-5.42598 -0.957747,-9.89481 -4.46863,-13.8845 -3.51088,-3.98966 -8.93726,-7.50094 -15.7996,-9.73515 -6.86231,-2.23422 -15.1613,-3.19177 -24.5772,-2.39387 -9.41584,0.797892 -19.9489,3.35162 -30.801,8.45849 -10.8522,5.10687 -22.0238,12.7673 -37.185,21.0659 -15.1611,8.29883 -34.3121,17.2361 -56.8145,24.5772 -22.5024,7.34128 -48.3563,13.0866 -69.9468,16.2516 -21.5906,3.16526 -38.9181,3.75067 -58.2285,2.15468 -19.3107,-1.59598 -40.6045,-5.37296 -65.6145,-11.4107 -25.0102,-6.0379 -53.7367,-14.3369 -77.037,-22.6356 -23.3003,-8.29863 -41.1748,-16.5977 -59.049,-24.8963z"/>
  <polygon class="fil9" points="428.699,93.7063 442.733,115.674 419.303,99.3024 410.283,122.974 407.834,97.8125 381.043,109.32 401.008,90.108 372.141,82.7101 402.826,80.7018 388.792,58.7334 412.222,75.1057 421.241,51.4339 423.691,76.5961 450.482,65.0886 430.517,84.3002 459.383,91.6963 "/>
  <path class="fil10" d="M388.708 336.551c-0.430897,0.388757 -0.957747,0.815302 -1.56828,1.27034l-0.00474818 0.00356114c-3.93248,2.92824 -7.31002,3.43748 -9.3923,3.74889l-0.00791363 0.00118705 -0.021169 0.00316545c-5.33537,0.796705 -7.36284,1.05568 -11.6196,-6.33091 -1.26757,-2.1994 -3.12371,-5.9831 -4.34973,-10.0602 -0.2291,-0.762874 -0.454045,-1.61042 -0.669296,-2.55037 -0.211888,-0.925499 -0.387966,-1.84487 -0.517354,-2.74445l-0.00118705 -0.00830932c-0.548613,-3.82565 -0.347804,-7.26986 -0.103273,-10.1708 0.138884,-1.64722 0.292409,-3.42087 0.292409,-3.56331l-0.0326437 0 0 -0.00494602c0,-0.279945 -0.176672,-0.679385 -0.426149,-1.24323 -0.32525,-0.735374 -0.69086,-1.56195 -1.12512,-2.74029 -1.01354,-2.75098 -2.1349,-6.93215 -2.3179,-10.979 -0.0415466,-0.922532 -0.0407552,-1.80055 0.0114748,-2.61091 0.0654853,-1.01077 0.189729,-1.97129 0.382228,-2.85999l0.00118705 -0.00553954c0.87505,-4.02567 2.77492,-6.5511 4.44351,-8.7691 0.358092,-0.475807 0.640213,-0.803629 0.672857,-0.868521l0.00118705 -0.00276977 0 -0.000197841 0.00138489 -0.00336329c0.0182014,-0.0427336 0.0326437,-0.0775536 0.0423379,-0.104658l-0.11178 0.00652875c-0.0864564,0.0765644 -0.185377,0.150359 -0.193488,0.0114748 -0.0925895,-1.54474 -0.186366,-3.11718 0.218218,-5.1401 0.714997,-3.57419 2.56441,-6.36296 4.51097,-9.29733 0.483127,-0.728846 0.679583,-1.01334 0.844385,-1.26796l0.0043525 -0.00672659c0.393308,-0.607965 0.770788,-1.21454 1.08021,-1.77978 -1.18091,-1.5392 -2.3365,-3.23213 -2.99056,-5.84798 -0.952406,-3.81002 -0.141456,-7.9443 1.39438,-11.6384 0.288254,-0.692839 0.547821,-1.27231 0.779295,-1.74654 0.15115,-0.310017 0.451671,-0.868126 0.875841,-1.63219l0.00296761 -0.0053417c0.675429,-1.21633 1.12809,-1.93924 1.56195,-2.63346 0.576508,-0.921938 1.03708,-0.996722 1.06161,-1.36668 0.0187949,-0.281725 -0.255413,-0.369369 -0.478775,-0.984456 -0.369962,-1.01848 -0.728252,-2.0069 -0.991776,-3.20838 -0.0917981,-0.329207 -0.165197,-0.667911 -0.217229,-1.01433l-0.00237409 -0.0154316c-0.292607,-1.90283 -0.141258,-3.23747 0.0140467,-4.60653 0.031061,-0.27401 0.178255,-0.190521 0.120881,-0.374315 -0.135323,-0.433469 -0.703522,-1.48677 -1.28992,-2.57391 -1.09663,-2.03341 -2.23382,-4.1412 -2.92369,-6.62074l-0.00118705 -0.0043525c-0.959132,-3.45351 -0.645159,-5.85134 -0.316743,-8.35838 0.0735968,-0.561868 0.149172,-1.13838 0.149172,-1.84585l0.0326437 0c0,-0.666724 -0.149172,-1.79224 -0.295574,-2.89738 -0.302894,-2.28625 -0.599062,-4.52027 -0.27856,-6.95094l0.00118705 -0.00890284c0.357498,-2.68391 1.13917,-4.18869 2.01976,-5.88458 0.306455,-0.590357 0.648522,-1.24877 0.824403,-1.9879 0.386383,-1.62368 0.515771,-4.09273 0.524674,-6.5147 0.00178057,-0.508055 -0.00158273,-1.03431 -0.00910068,-1.5667l-0.00178057 -0.0605393c-0.0100899,-0.651688 -0.0362049,-1.46204 -0.070827,-2.33828l-0.00118705 -0.0296761c-0.0597479,-1.49508 -0.132553,-2.65582 -0.316743,-3.37299 -0.0741903,-0.288848 -0.221977,-0.57453 -0.498757,-0.910661 -0.638037,-0.774745 -1.83478,-1.84368 -3.00441,-2.88828 -1.79165,-1.60014 -3.54155,-3.16347 -4.90507,-4.95928 -0.209711,-0.247103 -0.408343,-0.508253 -0.592335,-0.784439l-0.00118705 -0.00178057c-3.7297,-5.59454 -2.64454,-8.68442 -0.512803,-14.7532 0.32802,-0.934402 -0.7239,2.06407 0.415268,-1.25233 0.858234,-2.49853 1.67571,-5.06413 2.37488,-7.33218 0.359872,-1.16805 1.35007,-4.47417 2.02174,-6.71867 -0.749025,-1.67195 -1.38785,-3.93189 -1.29764,-6.89258 0.00118705,-0.062122 0.00237409,-0.124838 0.00474818,-0.187355l0.00118705 -0.0280934c0.0977334,-2.32186 0.61944,-4.41976 1.1641,-6.61065 0.28133,-1.13165 0.572354,-2.30148 0.743684,-3.43452l0.0053417 -0.0354135 0.00494602 0.000791363c0.146798,-0.995733 0.194873,-1.924 0.238992,-2.77689 0.131366,-2.54166 0.245916,-4.74422 1.35996,-7.20734l0.00296761 -0.00652875c1.03669,-2.2811 2.30722,-3.56865 3.57241,-4.61721 0.11732,-0.961111 0.292409,-2.02787 0.695806,-3.33856 0.793144,-2.57787 2.29753,-5.11636 3.88817,-7.11713 0.111978,-0.141061 0.276779,-0.335538 0.488469,-0.57908 0.130971,-0.172913 0.269261,-0.342067 0.415861,-0.50667 0.118309,-0.132949 0.27579,-0.299531 0.469278,-0.499152 0.147391,-0.1741 0.303092,-0.344243 0.4673,-0.508451l0.00276977 -0.00276977c1.25411,-1.25411 2.38596,-2.06289 3.63038,-2.95159 0.367786,-0.262733 0.758522,-0.541886 1.45967,-1.11562 0.851903,-0.697191 0.943503,-0.776525 1.03926,-0.859223 1.90085,-1.64505 4.12914,-3.57241 7.12385,-4.95156 0.132949,-0.0650896 0.268074,-0.127409 0.405969,-0.186168l0.00276977 -0.00118705 0.00158273 0.00375898c2.84792,-1.23512 4.96996,-1.48084 7.17114,-1.87157 0.514188,-0.0914025 0.997316,-0.182409 1.35897,-0.275394 0.0650896,-0.022356 0.130377,-0.0443163 0.196456,-0.0650896l0.00375898 -0.00118705 0.00296761 0.0096942 0.0235431 -0.00771579 0.00237409 -0.000791363 0.00375898 -0.00118705c0.617659,-0.192895 1.2828,-0.498559 1.92697,-0.794331 2.14064,-0.983071 4.17602,-1.91807 6.99249,-2.11927 3.53898,-0.252445 5.95006,0.702335 8.9066,1.87335 0.917981,0.363631 1.89532,0.750806 2.09098,0.819259 0.742299,0.259765 1.67769,0.54881 2.6295,0.843 3.04695,0.941327 6.23278,1.92598 8.93054,3.61079l0.00316545 0.00197841c0.238398,0.148974 0.544656,0.357498 0.910464,0.61845 2.30089,1.64287 3.95781,3.68479 4.90368,5.6905 1.62764,3.45153 1.50794,7.07716 -0.371743,10.0845 -0.0569782,0.0914025 -0.172122,0.25838 -0.341078,0.495196 -3.08454,4.31827 -7.39648,4.51809 -11.2067,4.69457 -0.0575717,0.00257193 0.0498559,-0.00178057 -0.545843,0.0294783 -0.700357,0.0366006 -1.33839,0.0965463 -2.02055,0.193884 -0.662965,0.0947658 -1.33701,0.225934 -2.1256,0.40775 -1.27944,0.294981 -1.05152,0.241168 -1.09564,0.251654 -2.20256,0.53239 -4.79883,1.15994 -7.6331,1.37994l-0.0154316 0.00118705c-0.307247,0.0235431 -1.24224,0.0561868 -2.18199,0.0886327 -1.1273,0.0389746 -2.27042,0.0787407 -2.57114,0.25561 -0.714997,0.42061 -1.69589,1.64327 -2.657,3.07029l-0.669691 0.993952c-0.0288848,0.0476796 -0.230682,0.412102 -0.586202,1.05884l-0.00138489 0.00237409c-0.658019,1.19615 -1.14589,2.26825 -1.54474,3.51623 -0.469476,1.46818 -0.933809,3.48279 -1.49805,6.43042 -0.857244,4.47793 -1.83735,10.664 -2.60497,16.1873 -0.241366,1.73783 -0.39034,2.82022 -0.435843,3.1702 -0.0282912,0.218812 -0.0842802,0.737946 -0.339495,2.88175l-0.00118705 0.00989204c-0.385196,3.23608 -0.606382,5.58683 -0.637245,7.38204 -0.0302696,1.75505 0.0904133,3.33322 0.381041,5.12071 0.371545,2.28566 0.955176,4.72939 1.55444,7.2388 0.627353,2.62713 1.26935,5.31499 1.69906,7.60599l0.00158273 0.00830932c0.544062,2.90272 0.909672,5.7724 1.02857,8.6314 0.126816,3.04457 -0.0205754,5.96114 -0.517156,8.7416 -0.415664,2.32819 -1.06458,4.5078 -1.69668,6.63162 -0.572354,1.92282 -1.12631,3.78291 -1.23631,5.14347l-0.00118705 0.0148381c-0.126222,1.58015 0.246708,3.55223 0.58917,5.36406 0.256402,1.35679 0.501922,2.65245 0.653864,4.16356l0.00118705 0.0118705c0.209513,2.09593 0.13374,3.75917 0.0633091,5.30965 -0.0389746,0.858629 -0.0747838,1.64821 -0.00217625,2.01184 0.0706292,0.353937 0.318326,0.95201 0.589961,1.60864 0.775734,1.87454 1.64366,3.97086 2.15627,6.91889 0.590555,3.39673 0.564044,7.495 0.286474,11.0449 -0.0367984,0.471059 -0.101888,1.1364 -0.190125,1.96001 -0.0544062,0.50944 -0.130377,1.11741 -0.22178,1.78987l-0.00178057 0.0130575c-0.308236,2.26152 -0.558505,3.50989 -0.778899,4.6093 -0.21169,1.05647 -0.391527,1.95348 -0.43248,2.52761 -0.0520321,0.728648 -0.0548019,1.12789 -0.0573738,1.53841 -0.0152337,2.32028 -0.0320502,4.7925 -0.940733,7.70036 -0.199819,0.639422 -0.421797,1.23136 -0.65426,1.79204 0.977136,1.06537 1.88206,2.42988 2.56956,4.35547 1.48559,4.16099 0.642191,8.74694 -0.0910068,12.734 -0.0488667,0.265898 -0.0949636,0.514782 -0.272031,1.57659l-0.00118705 0.00712227c-0.230287,1.38132 -0.346617,2.49141 -0.461761,3.59121 -0.173704,1.66068 -0.346024,3.30533 -0.655447,5.04118 -0.0710249,0.398649 -0.208524,0.98683 -0.500537,2.43483 -0.442966,2.19801 -0.943107,4.67894 -0.818468,5.66676l0.00118705 0.00929852c0.00712227,0.055989 0.304873,0.573145 0.591742,1.07131 0.810752,1.40803 1.59994,2.77749 2.14598,4.82514 0.867532,3.25349 0.572947,6.98972 -0.373128,10.2606 -0.164604,0.569386 -0.354729,1.14035 -0.565429,1.7044 -0.298344,0.798683 -0.5223,1.35798 -0.667515,1.66978l-0.0269064 -0.012464 -0.00771579 0.0170143c-0.578684,1.24007 -1.0996,2.10839 -1.59836,2.93972 -0.269261,0.448703 -0.463145,0.0751795 -0.48926,0.466904 -0.00712227,0.109604 0.100503,0.777119 0.215449,1.48836 0.383218,2.37389 0.799673,4.95235 0.249279,8.06953l-0.0265107 -0.00455034 -0.00633091 0.0371941 -0.00415466 0.0231474c-0.712029,3.96651 -2.90569,7.64457 -5.41016,10.336 -0.503505,0.541095 -0.990787,1.02323 -1.45472,1.44186zm-9.98681 -210.246c0.580267,0.873665 -3.92061,-6.00348 0,0zm-0.10169 0.053417l-0.000197841 0.00474818 0.000395682 0.00910068 0.0460969 -0.0304675 0.0126618 -0.022356 -0.0589566 0.0389746zm-16.2196 149.599c0.0569782,-0.158668 -0.0203776,-0.0743882 -0.11178,0.00652875l0.11178 -0.00652875z"/>
  <path class="fil11" d="M390.588 333.835c0.936776,-2.73772 -0.806004,-6.74954 -2.12283,-10.3 -1.31703,-3.55065 -2.2083,-6.64053 -1.85594,-8.98316 0.352355,-2.34283 1.94853,-3.93901 3.89964,-6.19974 1.9513,-2.26073 4.25793,-5.18679 3.6197,-7.58047 -0.638432,-2.39387 -4.22192,-4.25595 -5.53262,-7.18479 -1.31089,-2.92884 -0.349189,-6.92482 -0.609548,-10.1597 -0.260556,-3.23509 -1.74337,-5.70949 -1.00028,-8.3661 0.74309,-2.65661 3.71189,-5.49582 3.65333,-8.00603 -0.0587587,-2.5102 -3.14508,-4.6916 -2.91143,-7.00198 0.233848,-2.31039 3.78746,-4.75016 4.33667,-6.96162 0.549404,-2.21166 -1.906,-4.19581 -2.46312,-6.00823 -0.55712,-1.81242 0.783648,-3.45351 2.8038,-6.38254 2.02035,-2.92923 4.72028,-7.1466 4.97708,-11.198 0.256995,-4.05158 -1.92895,-7.93777 -2.96761,-11.4324 -1.03866,-3.49486 -0.929852,-6.59859 -2.24668,-9.88808 -1.31703,-3.2897 -4.05989,-6.76537 -4.47358,-10.5778 -0.413685,-3.81239 1.50141,-7.96191 1.70123,-12.5089 0.199819,-4.54698 -1.31564,-9.49181 -0.86496,-14.5613 0.450879,-5.06947 2.8681,-10.264 2.43384,-14.4796 -0.434458,-4.21579 -3.7202,-7.45326 -4.29908,-14.0956 -0.578882,-6.64251 1.54929,-16.6906 3.93901,-22.5452 2.38972,-5.85451 5.04118,-7.51578 7.6784,-9.62852 2.63722,-2.11294 5.26039,-4.67735 7.2293,-6.86903 1.96891,-2.19188 3.28416,-4.01142 5.06176,-4.72028 1.7778,-0.708864 4.01874,-0.307445 6.40332,-0.86318 2.38458,-0.555933 4.91338,-2.06902 7.0099,-2.85583 2.09652,-0.787011 3.76135,-0.847946 4.73651,-2.7767 0.975355,-1.92895 1.26183,-5.72631 -1.0535,-8.23156 -2.31553,-2.50526 -7.23286,-3.71881 -11.744,-5.08629 -4.51136,-1.36748 -8.61696,-2.88927 -11.9988,-2.86553 -3.38209,0.0239387 -6.04067,1.59301 -8.37025,3.05921 -2.32977,1.4662 -4.33113,2.82952 -6.41459,4.20313 -2.08366,1.37361 -4.25002,2.7579 -5.09242,4.55924 -0.842406,1.80134 -0.360664,4.02032 -1.52654,5.81652 -1.16607,1.79639 -3.97937,3.1706 -5.05701,5.24357 -1.07764,2.07317 -0.419225,4.84552 -1.10672,7.18914 -0.687497,2.34382 -2.72051,4.25892 -4.98935,5.81711 -2.26904,1.55819 -4.7741,2.75948 -5.78487,5.64559 -1.01097,2.8863 -0.527444,7.45741 0.837065,10.1815 1.36451,2.72427 3.6106,3.60169 4.73354,4.04031 1.12294,0.438613 1.12294,0.438613 0.63131,3.41315 -0.491832,2.97454 -1.4753,8.92401 -2.96464,13.2595 -1.48954,4.33548 -3.48536,7.05738 -3.88737,9.80123 -0.40221,2.74405 0.789385,5.51046 2.3458,8.0636 1.55661,2.55314 3.47883,4.8934 3.41513,8.74496 -0.0639026,3.85176 -2.11334,9.21483 -1.28062,13.6524 0.832712,4.43777 4.54777,7.95043 5.93087,10.5356 1.3833,2.58519 0.434458,4.24329 -0.518541,6.18945 -0.952999,1.94616 -1.91055,4.18057 -1.11266,7.05303 0.797892,2.87265 3.35162,6.38393 4.14951,8.93726 0.797892,2.55333 -0.159658,4.14951 0.15946,6.22407 0.319117,2.07456 1.9153,4.62829 1.75564,7.02196 -0.159658,2.39387 -2.07476,4.62829 -3.67054,7.50074 -1.59598,2.87265 -2.87285,6.38393 -2.23461,8.93726 0.638432,2.55333 3.19216,4.14951 3.67094,6.38373 0.478775,2.23422 -1.11741,5.10687 -1.58649,7.79315 -0.469278,2.68648 0.188344,5.18699 -0.29043,7.58067 -0.478775,2.39387 -2.09395,4.68151 -4.53689,7.18162 -2.44294,2.50031 -5.71404,5.2135 -6.51193,8.88404 -0.79809,3.67054 0.877226,8.29883 2.19346,11.0916 1.31624,2.79292 2.27378,3.75047 1.2098,7.06905 -1.06419,3.31878 -4.15011,8.99899 -3.86917,15.2237 0.281132,6.22467 3.92892,12.9942 7.53398,16.0328 3.60525,3.03884 7.16817,2.34639 10.7574,1.26836 3.58943,-1.07803 7.20576,-2.54245 8.14234,-5.28017z"/>
  <g>
   <path class="fil12" d="M618.812 209.859l7.99791 0.955176 -3.96335 6.01614 -4.03457 -6.97132zm6.70047 2.74979l-1.52654 2.32265 -0.0587587 -0.0407552 -0.055989 -0.0433271 -0.0532192 -0.0455034 -0.0504494 -0.0478775 -0.0476796 -0.0498559 -0.0449099 -0.0518343 -0.0419423 -0.0538127 -0.0389746 -0.0553954 -0.0362049 -0.0569782 -0.0332373 -0.0585609 -0.0302696 -0.0599458 -0.0271042 -0.0611328 -0.0243344 -0.0623199 -0.021169 -0.0633091 -0.0182014 -0.0642983 -0.0150359 -0.0648918 -0.0120683 -0.0656832 -0.008705 -0.0660788 -0.00573738 -0.0666724 -0.00237409 -0.0666724 0.000791363 -0.067068 0.00395682 -0.067068 0.00732011 -0.0668702 0.0104856 -0.0666724 0.0138489 -0.0664745 0.0172122 -0.065881 0.0205754 -0.0654853 0.0239387 -0.064694 0.027302 -0.0639026 0.0308632 -0.0629134 0.0342265 -0.0619242 0.0377876 -0.0607371 0.0407552 -0.0587587 0.0433271 -0.055989 0.0455034 -0.0532192 0.0478775 -0.0504494 0.0498559 -0.0476796 0.0518343 -0.0449099 0.0538127 -0.0419423 0.0553954 -0.0389746 0.0569782 -0.0362049 0.0585609 -0.0332373 0.0599458 -0.0302696 0.0611328 -0.0271042 0.0623199 -0.0243344 0.0633091 -0.021169 0.0642983 -0.0182014 0.0648918 -0.0150359 0.0656832 -0.0120683 0.0660788 -0.008705 0.0666724 -0.00573738 0.0666724 -0.00237409 0.067068 0.000791363 0.067068 0.00395682 0.0668702 0.00732011 0.0666724 0.0104856 0.0664745 0.0138489 0.065881 0.0172122 0.0654853 0.0205754 0.064694 0.0239387 0.0639026 0.027302 0.0629134 0.0308632 0.0619242 0.0342265 0.0607371 0.0377876zm40.5681 30.053l-42.0946 -27.7304 1.52654 -2.32265 42.0946 27.7304 -1.52654 2.32265zm6.70047 2.74979l-7.99791 -0.955176 3.96335 -6.01614 4.03457 6.97132zm-6.70047 -2.74979l1.52654 -2.32265 0.0587587 0.0407552 0.055989 0.0433271 0.0532192 0.0455034 0.0504494 0.0478775 0.0476796 0.0498559 0.0449099 0.0518343 0.0419423 0.0538127 0.0389746 0.0553954 0.0362049 0.0569782 0.0332373 0.0585609 0.0302696 0.0599458 0.0271042 0.0611328 0.0243344 0.0623199 0.021169 0.0633091 0.0182014 0.0642983 0.0150359 0.0648918 0.0120683 0.0656832 0.008705 0.0660788 0.00573738 0.0666724 0.00237409 0.0666724 -0.000791363 0.067068 -0.00395682 0.067068 -0.00732011 0.0668702 -0.0104856 0.0666724 -0.0138489 0.0664745 -0.0172122 0.065881 -0.0205754 0.0654853 -0.0239387 0.064694 -0.027302 0.0639026 -0.0308632 0.0629134 -0.0342265 0.0619242 -0.0377876 0.0607371 -0.0407552 0.0587587 -0.0433271 0.055989 -0.0455034 0.0532192 -0.0478775 0.0504494 -0.0498559 0.0476796 -0.0518343 0.0449099 -0.0538127 0.0419423 -0.0553954 0.0389746 -0.0569782 0.0362049 -0.0585609 0.0332373 -0.0599458 0.0302696 -0.0611328 0.0271042 -0.0623199 0.0243344 -0.0633091 0.021169 -0.0642983 0.0182014 -0.0648918 0.0150359 -0.0656832 0.0120683 -0.0660788 0.008705 -0.0666724 0.00573738 -0.0666724 0.00237409 -0.067068 -0.000791363 -0.067068 -0.00395682 -0.0668702 -0.00732011 -0.0666724 -0.0104856 -0.0664745 -0.0138489 -0.065881 -0.0172122 -0.0654853 -0.0205754 -0.064694 -0.0239387 -0.0639026 -0.027302 -0.0629134 -0.0308632 -0.0619242 -0.0342265 -0.0607371 -0.0377876z"/>
  </g>
  <g>
   <path class="fil12" d="M397.241 379.526l5.47485 -5.92988 2.55393 6.75191 -8.02878 -0.822029zm6.17244 -3.82347l0.981291 2.60636 -0.0676616 0.0235431 -0.0680572 0.0197841 -0.0684529 0.0164208 -0.0684529 0.0126618 -0.0684529 0.00910068 -0.0684529 0.00573738 -0.0682551 0.00237409 -0.0680572 -0.00118705 -0.0674637 -0.0043525 -0.067068 -0.00751795 -0.0662767 -0.0108812 -0.0656832 -0.0140467 -0.0648918 -0.0170143 -0.0637047 -0.0201798 -0.0627155 -0.0231474 -0.0615285 -0.026115 -0.0601436 -0.0290826 -0.0587587 -0.0318524 -0.0573738 -0.0346221 -0.0555933 -0.0373919 -0.0536149 -0.0401617 -0.0520321 -0.0427336 -0.0498559 -0.0453056 -0.0478775 -0.0478775 -0.0457012 -0.0504494 -0.0433271 -0.0528235 -0.0407552 -0.0551976 -0.0383811 -0.0575717 -0.0356114 -0.0599458 -0.0328416 -0.0619242 -0.029874 -0.0642983 -0.0269064 -0.0664745 -0.0235431 -0.0676616 -0.0197841 -0.0680572 -0.0164208 -0.0684529 -0.0126618 -0.0684529 -0.00910068 -0.0684529 -0.00573738 -0.0684529 -0.00237409 -0.0682551 0.00118705 -0.0680572 0.0043525 -0.0674637 0.00751795 -0.067068 0.0108812 -0.0662767 0.0140467 -0.0656832 0.0170143 -0.0648918 0.0201798 -0.0637047 0.0231474 -0.0627155 0.026115 -0.0615285 0.0290826 -0.0601436 0.0318524 -0.0587587 0.0346221 -0.0573738 0.0373919 -0.0555933 0.0401617 -0.0536149 0.0427336 -0.0520321 0.0453056 -0.0498559 0.0478775 -0.0478775 0.0504494 -0.0457012 0.0528235 -0.0433271 0.0551976 -0.0407552 0.0575717 -0.0383811 0.0599458 -0.0356114 0.0619242 -0.0328416 0.0642983 -0.029874 0.0664745 -0.0269064zm275.756 -101.332l-274.775 103.938 -0.981291 -2.60636 274.775 -103.938 0.981291 2.60636zm6.17244 -3.82347l-5.47485 5.92988 -2.55393 -6.75191 8.02878 0.822029zm-6.17244 3.82347l-0.981291 -2.60636 0.0676616 -0.0235431 0.0680572 -0.0197841 0.0684529 -0.0164208 0.0684529 -0.0126618 0.0684529 -0.00910068 0.0684529 -0.00573738 0.0682551 -0.00237409 0.0680572 0.00118705 0.0674637 0.0043525 0.067068 0.00751795 0.0662767 0.0108812 0.0656832 0.0140467 0.0648918 0.0170143 0.0637047 0.0201798 0.0627155 0.0231474 0.0615285 0.026115 0.0601436 0.0290826 0.0587587 0.0318524 0.0573738 0.0346221 0.0555933 0.0373919 0.0536149 0.0401617 0.0520321 0.0427336 0.0498559 0.0453056 0.0478775 0.0478775 0.0457012 0.0504494 0.0433271 0.0528235 0.0407552 0.0551976 0.0383811 0.0575717 0.0356114 0.0599458 0.0328416 0.0619242 0.029874 0.0642983 0.0269064 0.0664745 0.0235431 0.0676616 0.0197841 0.0680572 0.0164208 0.0684529 0.0126618 0.0684529 0.00910068 0.0684529 0.00573738 0.0684529 0.00237409 0.0682551 -0.00118705 0.0680572 -0.0043525 0.0674637 -0.00751795 0.067068 -0.0108812 0.0662767 -0.0140467 0.0656832 -0.0170143 0.0648918 -0.0201798 0.0637047 -0.0231474 0.0627155 -0.026115 0.0615285 -0.0290826 0.0601436 -0.0318524 0.0587587 -0.0346221 0.0573738 -0.0373919 0.0555933 -0.0401617 0.0536149 -0.0427336 0.0520321 -0.0453056 0.0498559 -0.0478775 0.0478775 -0.0504494 0.0457012 -0.0528235 0.0433271 -0.0551976 0.0407552 -0.0575717 0.0383811 -0.0599458 0.0356114 -0.0619242 0.0328416 -0.0642983 0.029874 -0.0664745 0.0269064z"/>
  </g>
  <text x="656.408" y="221.131"  class="fil0 fnt0">2 km</text>
  <text x="545.447" y="351.15"  class="fil0 fnt0">5 km</text>
  <text x="633.948" y="367.928"  class="fil0 fnt0">Kourou</text>
  <text x="633.948" y="389.05"  class="fil0 fnt0">15 km</text>
  <circle class="fil13" cx="611.57" cy="166.989" r="5.08595"/>
  <circle class="fil13" cx="609.588" cy="177.393" r="5.08595"/>
  <path class="fil3 str0" d="M595.016 197.254c-1.82033,-8.86822 -3.64106,-17.7364 -6.6152,-27.4546 -2.97434,-9.71834 -7.10288,-20.287 -12.8824,-30.8553 -5.77952,-10.5683 -13.2104,-21.1369 -21.2192,-29.9713 -8.00879,-8.83438 -16.5959,-15.9353 -24.3857,-21.2707 -7.78979,-5.33537 -14.7827,-8.90581 -24.4415,-11.3733 -9.65899,-2.46767 -21.9839,-3.83297 -37.3047,-2.27299 -15.3208,1.56017 -33.6377,6.04562 -32.4006,6.36652 1.2373,0.320898 22.0286,-3.52236 35.3965,-5.19629 13.3679,-1.67393 19.3126,-1.17854 25.67,0.637839 6.35762,1.81638 13.1281,4.95413 19.228,8.55286 6.10003,3.59872 11.53,7.65881 17.7222,13.4383 6.19242,5.77952 13.1477,13.2789 20.4231,25.1197 7.2756,11.841 14.8719,28.024 20.547,42.6222 5.67506,14.5983 9.42949,27.6124 11.5064,37.4368 2.07713,9.82458 2.47697,16.4598 2.8768,23.0949"/>
  <polygon class="fil6 str2" points="21.26,428.711 713.568,428.711 776.844,42.8187 250.115,42.8187 "/>
  <circle class="fil13" cx="595.016" cy="197.254" r="5.08595"/>
  <circle class="fil13" cx="582.714" cy="196.188" r="5.08595"/>
  <circle class="fil13" cx="579.631" cy="198.949" r="5.08595"/>
  <circle class="fil13" cx="577.136" cy="224.86" r="3.41662"/>
  <circle class="fil13" cx="574.052" cy="227.62" r="3.13589"/>
  <circle class="fil13" cx="563.588" cy="203.841" r="5.08595"/>
  <circle class="fil13" cx="569.237" cy="179.967" r="5.08595"/>
  <circle class="fil13" cx="558.254" cy="179.024" r="5.08595"/>
  <circle class="fil13" cx="546.088" cy="186.096" r="5.08595"/>
  <circle class="fil13" cx="560.338" cy="206.621" r="3.16477"/>
  <circle class="fil13" cx="552.894" cy="202.729" r="5.08595"/>
  <circle class="fil13" cx="549.81" cy="205.489" r="5.08595"/>
  <circle class="fil13" cx="541.622" cy="211.773" r="5.08595"/>
  <circle class="fil13" cx="526.508" cy="170.724" r="3.33075"/>
  <circle class="fil13" cx="524.04" cy="173.196" r="5.08595"/>
  <circle class="fil13" cx="522.217" cy="191.952" r="3.17031"/>
  <circle class="fil13" cx="519.749" cy="194.425" r="3.32799"/>
  <circle class="fil13" cx="514.094" cy="190.964" r="2.82627"/>
  <circle class="fil13" cx="490.587" cy="162.677" r="2.5228"/>
  <circle class="fil13" cx="487.346" cy="181.061" r="1.90258"/>
  <circle class="fil13" cx="476.239" cy="171.499" r="1.90258"/>
  <circle class="fil13" cx="473.726" cy="174.011" r="1.90258"/>
  <circle class="fil13" cx="472.836" cy="182.654" r="1.90258"/>
  <circle class="fil13" cx="470.612" cy="168.618" r="1.90258"/>
  <circle class="fil13" cx="468.099" cy="171.131" r="0.781252"/>
  <circle class="fil13" cx="464.061" cy="171.72" r="0.340079"/>
  <circle class="fil13" cx="461.361" cy="166.158" r="0.340079"/>
  <circle class="fil13" cx="456.534" cy="159.431" r="0.340079"/>
  <circle class="fil13" cx="452.047" cy="157.765" r="0.340079"/>
  <circle class="fil13" cx="454.714" cy="155.091" r="0.340079"/>
  <circle class="fil13" cx="459.183" cy="168.749" r="1.46141"/>
  <circle class="fil13" cx="574.641" cy="250.772" r="3.52028"/>
  <circle class="fil13" cx="589.137" cy="226.129" r="5.08595"/>
  <polygon class="fil0 str2" points="692.885,332.765 699.78,322.232 726.4,325.487 729.655,318.21 743.061,334.68 716.633,343.872 721.612,335.446 "/>
 </g>
</svg>
